PathFileType	4	(X/Y/Z)	D:\TRACE\spot_10-12-23\spot_body_motion_3_3-v60.trc
DataRate	CameraRate	NumFrames	NumMarkers	Units	OrigDataRate	OrigDataStartFrame	OrigNumFrames
100.00	100.00	      17	9	mm	100.00	1751	      7000
Frame#	Time	front left toe			Front right toe			aft left toe			aft right toe			Arm			FL body			FR body			AL Body			AR Body			
		X1	Y1	Z1	X2	Y2	Z2	X3	Y3	Z3	X4	Y4	Z4	X5	Y5	Z5	X6	Y6	Z6	X7	Y7	Z7	X8	Y8	Z8	X9	Y9	Z9	

1751	17.500	-286.89792	26.99112	63.00300	289.22482	22.40095	51.56925	-272.36493	72.60513	599.21942	305.14017	21.89085	589.39948	46.56007	808.44238	-131.43300	-37.70610	545.72430	-108.35007	115.12090	551.08051	-113.77796	-8.81013	558.34351	775.25916	141.79811	557.96594	772.18201	
1752	17.510	-286.96286	27.01272	63.00106	289.17352	22.43967	51.65973	-273.53195	62.15188	600.43152	304.95712	21.81253	589.45245	46.83067	808.63483	-131.01291	-37.60402	545.76154	-108.01271	115.42122	551.16827	-113.71764	-8.80727	558.36823	775.47571	141.89172	558.00800	772.87244	
1753	17.520	-287.02484	26.96796	63.09108	289.04294	22.35979	51.68895	-274.46021	52.34544	600.94916	304.82101	21.76091	589.57166	46.90688	808.67450	-130.58188	-37.47462	545.66162	-107.63026	115.25506	551.21735	-113.53085	-8.90916	558.40820	775.84412	141.62741	558.03033	773.15479	
1754	17.530	-287.14474	26.99776	63.13389	288.97989	22.35338	51.70195	-274.76044	41.21566	601.46680	304.31763	21.64911	589.55444	46.82895	808.55566	-130.28496	-37.36315	545.60181	-107.19221	115.13402	551.03522	-113.00435	-8.98203	558.49811	776.26324	141.48215	557.96088	773.50732	
1755	17.540	-287.22964	26.98074	63.17199	288.87131	22.25114	51.68899	-275.58655	31.66128	601.02313	304.37732	21.57224	589.69012	46.64572	808.47705	-129.94141	-37.48024	545.65088	-106.90320	115.22227	550.87451	-112.25669	-9.13296	557.98920	776.38715	141.25078	557.97919	773.89160	
1756	17.550	-287.34259	26.92707	63.27166	288.78137	22.17984	51.75621	-277.34113	32.12434	599.62372	304.02667	21.50344	589.62781	46.65451	808.41089	-129.56071	-37.74195	545.50995	-106.37653	115.00919	550.59882	-111.97707	-8.61541	559.18701	777.11951	141.85776	558.43573	773.90192	
1757	17.560	-287.24512	27.33702	63.80790	288.56790	21.55094	51.37490	-277.91492	34.48089	602.29974	303.71381	22.01206	589.32458	46.64014	808.12744	-129.55684	-38.46832	545.12378	-105.76778	114.68533	550.02924	-111.87173	-7.95856	561.03992	777.50397	142.73943	559.74902	774.66443	
1758	17.570	-287.47189	27.31088	63.89192	288.34543	21.60684	51.46392	-275.74988	33.63718	602.67468	304.20767	21.96239	589.80322	46.95121	807.47174	-129.71082	-38.95201	544.60480	-105.18978	113.76617	549.69452	-111.34875	-7.28858	561.59698	778.02582	142.77986	561.19891	774.93634	
1759	17.580	-287.33017	27.23626	63.93660	288.33472	21.47355	51.34864	-276.05423	34.38990	600.72009	304.80179	21.22463	589.46027	46.00895	807.04547	-129.62683	-39.04178	544.46130	-104.51440	113.60137	549.67566	-110.65873	-7.06198	562.50775	778.79559	143.09419	561.72540	775.11133	
1760	17.590	-287.31094	27.29183	63.94984	288.67206	21.51860	51.46518	-275.93854	33.90379	603.40759	304.44547	21.20825	589.42584	44.71277	806.85034	-129.47534	-39.04449	544.37000	-103.79110	113.60593	549.87372	-110.71953	-6.94123	562.72089	779.29211	143.48332	562.33868	775.91785	
1761	17.600	-287.42896	27.38074	64.02146	288.25711	21.45965	51.39585	-276.33585	34.06392	601.59607	304.29785	21.32363	589.49097	43.56059	806.99945	-128.80171	-39.40031	544.62134	-103.51466	113.51537	550.40131	-110.06683	-6.77970	562.76288	779.68079	143.63029	562.51788	776.32489	
1762	17.610	-287.47577	27.42743	64.02872	288.49689	21.62797	51.49297	-276.07468	33.80214	602.33038	304.32950	21.20953	589.54089	43.33126	807.55695	-128.11461	-39.57988	544.85852	-103.13726	113.36533	550.72424	-109.34726	-6.99234	562.10028	779.87036	143.35109	562.51208	776.74512	
1763	17.620	-287.51755	27.51188	64.01875	288.43982	21.69394	51.56456	-276.26285	33.60810	602.08118	304.34213	21.18781	589.62982	43.14985	808.30292	-127.41348	-39.88315	545.13373	-102.86039	112.57572	551.27771	-109.00211	-7.54435	562.43671	780.52124	142.94904	562.17560	776.81763	
1764	17.630	-287.58963	27.51652	64.06146	288.45151	21.89428	51.81688	-276.33078	33.34899	602.12317	304.57364	20.87056	589.59052	42.99078	808.68018	-126.83614	-40.34093	545.50543	-102.43826	112.47139	551.67578	-108.88666	-7.61645	562.26672	780.88965	142.67076	561.84302	777.58624	
1765	17.640	-287.68127	27.42772	64.13791	288.24570	21.78585	51.68033	-276.48190	32.94165	602.27283	304.45099	21.16734	589.82843	42.85775	808.90381	-126.36193	-40.38911	545.65131	-102.02119	112.43250	551.78253	-108.42130	-8.39704	561.68683	781.37830	142.53816	561.69543	778.62769	
1766	17.650	-287.70935	27.26893	64.19296	288.19904	21.79938	51.79485	-276.74927	32.63821	602.38318	304.34924	20.83038	589.85455	42.56295	808.98047	-125.80412	-40.51482	545.71503	-101.66041	112.26379	551.69232	-108.09967	-9.21726	561.48151	781.65387	141.19847	561.27936	778.42615	
1767	17.660	-287.76382	27.20960	64.24157	288.11276	21.80752	51.82700	-276.93182	32.42188	602.43964	304.19370	21.10883	590.04907	42.36311	809.04626	-125.29035	-40.67149	545.76862	-101.33482	112.12729	551.89221	-107.80022	-9.90793	561.32446	781.98553	140.67136	561.11890	778.90253	
